<?xml version="1.0" standalone="no"?>
<!DOCTYPE svg PUBLIC "-//W3C//DTD SVG 20010904//EN"
 "http://www.w3.org/TR/2001/REC-SVG-20010904/DTD/svg10.dtd">
<svg version="1.0" xmlns="http://www.w3.org/2000/svg"
 width="260.000000pt" height="260.000000pt" viewBox="0 0 260.000000 260.000000"
 preserveAspectRatio="xMidYMid meet">
<metadata>
Created by potrace 1.11, written by Peter Selinger 2001-2013
</metadata>
<g transform="translate(0.000000,260.000000) scale(0.100000,-0.100000)"
fill="#000000" stroke="none">
<path d="M1145 2450 c-144 -23 -232 -49 -353 -107 -283 -134 -507 -385 -609
-683 -17 -48 -28 -100 -26 -118 6 -71 77 -125 178 -137 28 -3 124 -8 215 -10
91 -2 171 -4 178 -4 9 -1 11 -8 6 -23 -26 -79 37 -125 197 -144 60 -8 148 17
182 52 24 24 31 25 79 19 108 -15 368 -6 450 16 32 8 40 7 57 -10 30 -30 61
-34 158 -21 49 6 104 13 123 15 19 3 55 7 80 10 51 6 113 12 217 21 42 4 78
13 84 20 17 21 -11 27 -88 19 -38 -4 -75 -7 -83 -7 -8 0 -46 -4 -85 -9 -38 -4
-95 -11 -125 -14 -30 -3 -73 -9 -95 -12 -22 -4 -65 -7 -95 -7 l-55 -1 1 35 c1
19 19 81 39 138 28 77 35 106 26 115 -17 17 -27 2 -74 -123 -41 -110 -45 -115
-80 -127 -53 -18 -143 -26 -292 -26 -183 -1 -199 3 -225 58 -27 57 -85 87
-173 90 -75 2 -98 -3 -131 -32 -16 -14 -33 -20 -48 -17 -13 2 -115 7 -228 9
-224 6 -290 17 -329 59 -32 34 -33 67 -3 151 119 337 384 601 717 714 90 30
112 35 215 51 60 9 297 6 345 -5 17 -3 50 -11 75 -16 193 -43 429 -181 569
-335 164 -179 275 -418 298 -639 24 -238 -11 -444 -108 -642 -353 -720 -1306
-868 -1857 -289 -206 217 -311 481 -316 793 -1 74 -7 90 -26 78 -15 -9 -11
-195 7 -293 67 -368 304 -683 641 -851 78 -39 200 -84 258 -95 16 -3 54 -9 84
-15 55 -10 337 -9 376 2 12 3 37 8 56 11 20 3 76 19 126 36 268 90 501 278
644 523 41 70 111 236 122 287 3 14 12 54 20 90 19 87 19 361 -1 455 -96 465
-459 832 -919 930 -87 19 -319 27 -399 15z m-97 -1034 c27 -14 52 -43 52 -60
0 -8 -45 2 -128 29 -42 14 -85 25 -94 25 -10 0 -18 4 -18 9 0 24 141 21 188
-3z m-82 -71 c41 -14 86 -26 100 -27 36 -3 29 -17 -18 -38 -52 -23 -139 -21
-216 4 -65 22 -81 47 -51 77 26 26 71 22 185 -16z"/>
<path d="M629 1002 c2 -55 0 -77 -10 -83 -14 -8 39 -14 86 -9 47 5 66 50 31
75 -14 11 -15 13 -1 19 19 7 20 40 1 55 -7 6 -35 13 -62 14 l-49 3 4 -74z m76
28 c0 -16 -6 -26 -17 -28 -14 -3 -18 3 -18 28 0 25 4 31 18 28 11 -2 17 -12
17 -28z m-9 -48 c17 -12 23 -39 11 -51 -22 -22 -37 -12 -37 24 0 35 6 41 26
27z"/>
<path d="M975 1038 c-10 -24 -23 -54 -29 -68 -5 -14 -16 -33 -24 -42 -14 -17
-13 -18 14 -18 21 0 25 3 15 9 -20 13 3 41 34 41 25 0 41 -26 26 -44 -7 -8 1
-10 29 -8 37 4 39 5 26 26 -8 11 -24 46 -37 76 -12 30 -25 58 -29 63 -3 4 -14
-12 -25 -35z m21 -65 c-2 -3 -11 -3 -19 -1 -11 2 -12 9 -5 28 l10 25 9 -24 c5
-13 7 -26 5 -28z"/>
<path d="M1247 1068 c-9 -5 -9 -8 -1 -8 12 0 14 -127 2 -145 -4 -7 6 -9 28 -7
22 3 31 8 26 16 -9 14 -10 56 -1 56 4 0 17 -15 28 -34 20 -31 53 -51 65 -38 3
3 -6 21 -20 39 l-26 34 21 20 c17 16 19 23 9 44 -6 15 -20 25 -32 26 -12 0
-36 1 -54 2 -19 1 -39 -1 -45 -5z m91 -40 c2 -20 -1 -28 -12 -28 -9 0 -19 -1
-23 -2 -3 -2 -7 12 -8 30 -1 28 2 32 19 30 15 -2 22 -12 24 -30z"/>
<path d="M1570 1066 c15 -15 13 -143 -2 -150 -7 -3 19 -4 57 -3 67 2 70 3 73
27 l3 25 -16 -22 c-9 -13 -27 -23 -41 -23 -21 0 -24 4 -24 38 l1 37 19 -23 19
-23 -2 41 c-1 34 -3 38 -13 26 -17 -24 -24 -19 -24 14 0 25 4 30 24 30 13 0
26 -7 30 -15 8 -22 25 -18 19 5 -3 11 -13 20 -22 21 -82 5 -109 3 -101 -5z"/>
<path d="M1980 1071 c0 -3 4 -12 9 -20 8 -12 11 -12 25 1 14 14 13 16 -9 21
-14 2 -25 1 -25 -2z"/>
<path d="M1867 1062 c7 -4 13 -33 14 -65 1 -31 5 -57 10 -57 4 0 5 20 2 45 -2
25 -1 45 4 45 4 -1 28 -28 52 -60 25 -33 48 -60 51 -60 11 0 8 70 -4 71 -6 0
-25 19 -41 42 -25 34 -38 43 -65 45 -21 1 -30 -1 -23 -6z"/>
<path d="M1993 1010 c-1 -11 2 -20 5 -20 4 0 8 9 9 20 1 11 -2 20 -5 20 -4 0
-8 -9 -9 -20z"/>
<path d="M1872 917 c-9 -11 -8 -13 6 -12 19 1 29 18 14 23 -5 1 -14 -3 -20
-11z"/>
</g>
</svg>
